<?xml version="1.0" standalone="no"?>
<!DOCTYPE svg PUBLIC "-//W3C//DTD SVG 20010904//EN"
 "http://www.w3.org/TR/2001/REC-SVG-20010904/DTD/svg10.dtd">
<svg version="1.0" xmlns="http://www.w3.org/2000/svg"
 width="260.000000pt" height="260.000000pt" viewBox="0 0 260.000000 260.000000"
 preserveAspectRatio="xMidYMid meet">
<metadata>
Created by potrace 1.11, written by Peter Selinger 2001-2013
</metadata>
<g transform="translate(0.000000,260.000000) scale(0.100000,-0.100000)"
fill="#000000" stroke="none">
<path d="M496 1442 c-4 -7 -10 -1038 -6 -1140 0 -10 35 -12 158 -10 l157 3 -3
500 c-1 275 -3 535 -2 578 l0 77 -149 0 c-83 0 -152 -4 -155 -8z"/>
<path d="M918 685 c-1 -184 -2 -347 -2 -362 l-1 -28 160 0 160 0 -2 340 c-2
187 -3 350 -3 363 0 22 -1 22 -155 22 l-155 0 -2 -335z"/>
<path d="M1787 703 c-3 -5 -7 -98 -8 -208 l-4 -200 160 0 160 0 -1 33 c0 17
-1 111 -2 207 l-2 175 -149 0 c-83 0 -152 -3 -154 -7z"/>
<path d="M1354 345 c-4 -8 -4 -22 0 -30 4 -12 31 -15 155 -15 90 0 152 4 156
10 3 6 3 19 0 30 -6 19 -15 20 -156 20 -124 0 -151 -3 -155 -15z"/>
</g>
</svg>
